<svg viewBox="0 0 210 260" xmlns="http://www.w3.org/2000/svg">
  <defs>
    <linearGradient id="stroke" x1="24" y1="24" x2="182" y2="246" gradientUnits="userSpaceOnUse">
      <stop stop-color="#4ade80" />
      <stop offset="0.55" stop-color="#22c55e" />
      <stop offset="1" stop-color="#16a34a" />
    </linearGradient>
    <linearGradient id="fill" x1="42" y1="26" x2="168" y2="246" gradientUnits="userSpaceOnUse">
      <stop stop-color="#14532d" />
      <stop offset="1" stop-color="#052e16" />
    </linearGradient>
    <clipPath id="shape">
      <path
        fill-rule="evenodd"
        clip-rule="evenodd"
        d="M63.866 23.5H140.3C170.925 23.5 186.5 39.243 186.5 70.236V108.95C186.5 137.677 171.907 157.977 144.353 168.618L91.318 188.863L76.194 246.5H24.5L46.377 163.355C53.264 137.186 71.916 118.069 96.712 109.772L121.813 101.175C137.302 95.83 144.975 84.723 144.975 69.278C144.975 51.902 133.592 42.004 113.825 42.004H74.886L67.784 76.454H27.625L41.772 31.631C43.649 25.689 48.9 23.5 63.866 23.5ZM73.4 74.478H113.117C122.773 74.478 129.119 69.172 129.119 60.61C129.119 51.783 122.975 47.115 113.117 47.115H78.332L73.4 74.478Z"
      />
    </clipPath>
  </defs>
  <rect width="210" height="260" rx="48" fill="#0d0d0d" />
  <path
    d="M63.866 23.5H140.3C170.925 23.5 186.5 39.243 186.5 70.236V108.95C186.5 137.677 171.907 157.977 144.353 168.618L91.318 188.863L76.194 246.5H24.5L46.377 163.355C53.264 137.186 71.916 118.069 96.712 109.772L121.813 101.175C137.302 95.83 144.975 84.723 144.975 69.278C144.975 51.902 133.592 42.004 113.825 42.004H74.886L67.784 76.454H27.625L41.772 31.631C43.649 25.689 48.9 23.5 63.866 23.5Z"
    fill="url(#fill)"
    stroke="url(#stroke)"
    stroke-width="8"
    stroke-linejoin="round"
  />
  <g clip-path="url(#shape)" opacity="0.96">
    <rect x="18" y="18" width="175" height="232" fill="#1a1a1a" />
    <g fill="#166534">
      <rect x="33" y="37" width="9" height="9" />
      <rect x="42" y="37" width="9" height="9" />
      <rect x="60" y="37" width="9" height="9" />
      <rect x="69" y="37" width="9" height="9" />
      <rect x="78" y="37" width="9" height="9" />
      <rect x="96" y="37" width="9" height="9" />
      <rect x="105" y="37" width="9" height="9" />
      <rect x="123" y="37" width="9" height="9" />
      <rect x="132" y="37" width="9" height="9" />
      <rect x="150" y="37" width="9" height="9" />
      <rect x="33" y="55" width="9" height="9" />
      <rect x="51" y="55" width="9" height="9" />
      <rect x="69" y="55" width="9" height="9" />
      <rect x="87" y="55" width="9" height="9" />
      <rect x="105" y="55" width="9" height="9" />
      <rect x="123" y="55" width="9" height="9" />
      <rect x="141" y="55" width="9" height="9" />
      <rect x="42" y="64" width="9" height="9" />
      <rect x="60" y="64" width="9" height="9" />
      <rect x="78" y="64" width="9" height="9" />
      <rect x="96" y="64" width="9" height="9" />
      <rect x="114" y="64" width="9" height="9" />
      <rect x="132" y="64" width="9" height="9" />
      <rect x="150" y="64" width="9" height="9" />
      <rect x="33" y="82" width="9" height="9" />
      <rect x="51" y="82" width="9" height="9" />
      <rect x="69" y="82" width="9" height="9" />
      <rect x="87" y="82" width="9" height="9" />
      <rect x="105" y="82" width="9" height="9" />
      <rect x="123" y="82" width="9" height="9" />
      <rect x="141" y="82" width="9" height="9" />
      <rect x="42" y="91" width="9" height="9" />
      <rect x="60" y="91" width="9" height="9" />
      <rect x="96" y="91" width="9" height="9" />
      <rect x="114" y="91" width="9" height="9" />
      <rect x="132" y="91" width="9" height="9" />
      <rect x="150" y="91" width="9" height="9" />
      <rect x="51" y="109" width="9" height="9" />
      <rect x="69" y="109" width="9" height="9" />
      <rect x="87" y="109" width="9" height="9" />
      <rect x="105" y="109" width="9" height="9" />
      <rect x="123" y="109" width="9" height="9" />
      <rect x="141" y="109" width="9" height="9" />
      <rect x="33" y="127" width="9" height="9" />
      <rect x="51" y="127" width="9" height="9" />
      <rect x="69" y="127" width="9" height="9" />
      <rect x="87" y="127" width="9" height="9" />
      <rect x="105" y="127" width="9" height="9" />
      <rect x="123" y="127" width="9" height="9" />
      <rect x="141" y="127" width="9" height="9" />
      <rect x="33" y="145" width="9" height="9" />
      <rect x="60" y="145" width="9" height="9" />
      <rect x="78" y="145" width="9" height="9" />
      <rect x="96" y="145" width="9" height="9" />
      <rect x="114" y="145" width="9" height="9" />
      <rect x="132" y="145" width="9" height="9" />
      <rect x="150" y="145" width="9" height="9" />
    </g>
    <g fill="#4ade80">
      <rect x="42" y="46" width="9" height="9" />
      <rect x="51" y="46" width="9" height="9" />
      <rect x="87" y="46" width="9" height="9" />
      <rect x="96" y="46" width="9" height="9" />
      <rect x="114" y="46" width="9" height="9" />
      <rect x="132" y="46" width="9" height="9" />
      <rect x="60" y="55" width="9" height="9" />
      <rect x="78" y="55" width="9" height="9" />
      <rect x="96" y="55" width="9" height="9" />
      <rect x="114" y="55" width="9" height="9" />
      <rect x="150" y="55" width="9" height="9" />
      <rect x="51" y="64" width="9" height="9" />
      <rect x="69" y="64" width="9" height="9" />
      <rect x="87" y="64" width="9" height="9" />
      <rect x="123" y="64" width="9" height="9" />
      <rect x="141" y="64" width="9" height="9" />
      <rect x="33" y="73" width="9" height="9" />
      <rect x="60" y="73" width="9" height="9" />
      <rect x="78" y="73" width="9" height="9" />
      <rect x="96" y="73" width="9" height="9" />
      <rect x="114" y="73" width="9" height="9" />
      <rect x="132" y="73" width="9" height="9" />
      <rect x="150" y="73" width="9" height="9" />
      <rect x="51" y="91" width="9" height="9" />
      <rect x="69" y="91" width="9" height="9" />
      <rect x="87" y="91" width="9" height="9" />
      <rect x="123" y="91" width="9" height="9" />
      <rect x="141" y="91" width="9" height="9" />
      <rect x="33" y="100" width="9" height="9" />
      <rect x="60" y="100" width="9" height="9" />
      <rect x="78" y="100" width="9" height="9" />
      <rect x="96" y="100" width="9" height="9" />
      <rect x="114" y="100" width="9" height="9" />
      <rect x="132" y="100" width="9" height="9" />
      <rect x="150" y="100" width="9" height="9" />
    </g>
    <g stroke="#22c55e" stroke-width="7" fill="none" opacity="0.9">
      <rect x="31.5" y="34.5" width="36" height="36" />
      <rect x="128.5" y="34.5" width="36" height="36" />
      <rect x="31.5" y="189.5" width="36" height="36" />
    </g>
  </g>
</svg>
